%TF.GenerationSoftware,KiCad,Pcbnew,9.0.7*%
%TF.CreationDate,2026-09-07T16:37:25+01:00*%
%TF.ProjectId,business_card,62757369-6e65-4737-935f-636172642e6b,rev?*%
%TF.SameCoordinates,Original*%
%TF.FileFunction,Copper,L1,Top*%
%TF.FilePolarity,Positive*%
%FSLAX46Y46*%
G04 Gerber Fmt 4.6, Leading zero omitted, Abs format (unit mm)*
G04 Created by KiCad (PCBNEW 9.0.7) date 2026-09-07 16:37:25*
%MOMM*%
%LPD*%
G01*
G04 APERTURE LIST*
G04 Aperture macros list*
%AMRoundRect*
0 Rectangle with rounded corners*
0 $1 Rounding radius*
0 $2 $3 $4 $5 $6 $7 $8 $9 X,Y pos of 4 corners*
0 Add a 4 corners polygon primitive as box body*
4,1,4,$2,$3,$4,$5,$6,$7,$8,$9,$2,$3,0*
0 Add four circle primitives for the rounded corners*
1,1,$1+$1,$2,$3*
1,1,$1+$1,$4,$5*
1,1,$1+$1,$6,$7*
1,1,$1+$1,$8,$9*
0 Add four rect primitives between the rounded corners*
20,1,$1+$1,$2,$3,$4,$5,0*
20,1,$1+$1,$4,$5,$6,$7,0*
20,1,$1+$1,$6,$7,$8,$9,0*
20,1,$1+$1,$8,$9,$2,$3,0*%
G04 Aperture macros list end*
%TA.AperFunction,EtchedComponent*%
%ADD10C,0.300000*%
%TD*%
%TA.AperFunction,SMDPad,CuDef*%
%ADD11RoundRect,0.140000X-0.170000X0.140000X-0.170000X-0.140000X0.170000X-0.140000X0.170000X0.140000X0*%
%TD*%
%TA.AperFunction,SMDPad,CuDef*%
%ADD12RoundRect,0.250000X-0.262500X-0.450000X0.262500X-0.450000X0.262500X0.450000X-0.262500X0.450000X0*%
%TD*%
%TA.AperFunction,SMDPad,CuDef*%
%ADD13RoundRect,0.200000X-0.200000X-0.275000X0.200000X-0.275000X0.200000X0.275000X-0.200000X0.275000X0*%
%TD*%
%TA.AperFunction,SMDPad,CuDef*%
%ADD14RoundRect,0.135000X-0.135000X-0.185000X0.135000X-0.185000X0.135000X0.185000X-0.135000X0.185000X0*%
%TD*%
%TA.AperFunction,SMDPad,CuDef*%
%ADD15RoundRect,0.100000X-0.130000X-0.100000X0.130000X-0.100000X0.130000X0.100000X-0.130000X0.100000X0*%
%TD*%
%TA.AperFunction,SMDPad,CuDef*%
%ADD16RoundRect,0.250000X-0.312500X-0.625000X0.312500X-0.625000X0.312500X0.625000X-0.312500X0.625000X0*%
%TD*%
%TA.AperFunction,ComponentPad*%
%ADD17C,1.208000*%
%TD*%
%TA.AperFunction,SMDPad,CuDef*%
%ADD18RoundRect,0.218750X0.218750X0.256250X-0.218750X0.256250X-0.218750X-0.256250X0.218750X-0.256250X0*%
%TD*%
%TA.AperFunction,SMDPad,CuDef*%
%ADD19RoundRect,0.250000X-0.362500X-1.425000X0.362500X-1.425000X0.362500X1.425000X-0.362500X1.425000X0*%
%TD*%
%TA.AperFunction,SMDPad,CuDef*%
%ADD20R,0.280000X0.400000*%
%TD*%
%TA.AperFunction,SMDPad,CuDef*%
%ADD21R,0.220000X0.400000*%
%TD*%
%TA.AperFunction,SMDPad,CuDef*%
%ADD22R,0.400000X0.220000*%
%TD*%
%TA.AperFunction,SMDPad,CuDef*%
%ADD23RoundRect,0.250000X-0.312500X-1.075000X0.312500X-1.075000X0.312500X1.075000X-0.312500X1.075000X0*%
%TD*%
%TA.AperFunction,ViaPad*%
%ADD24C,0.600000*%
%TD*%
%TA.AperFunction,Conductor*%
%ADD25C,0.300000*%
%TD*%
%TA.AperFunction,Conductor*%
%ADD26C,0.200000*%
%TD*%
G04 APERTURE END LIST*
D10*
%TO.C,E$1*%
X175570000Y-91470000D02*
X175570000Y-134070000D01*
X176170000Y-91470000D02*
X176170000Y-134070000D01*
X176770000Y-91470000D02*
X176770000Y-134070000D01*
X177370000Y-91470000D02*
X177370000Y-134070000D01*
X177970000Y-91470000D02*
X177970000Y-134070000D01*
X178270000Y-136770000D02*
X186470000Y-136770000D01*
X187070000Y-137370000D02*
X187070000Y-138270000D01*
X187470000Y-136170000D02*
X178270000Y-136170000D01*
X187670000Y-135570000D02*
X178270000Y-135570000D01*
X187870000Y-134970000D02*
X178270000Y-134970000D01*
X188070000Y-134370000D02*
X178270000Y-134370000D01*
X188070000Y-136770000D02*
X187470000Y-136170000D01*
X188270000Y-136170000D02*
X187670000Y-135570000D01*
X188470000Y-135570000D02*
X187870000Y-134970000D01*
X188670000Y-134970000D02*
X188070000Y-134370000D01*
X189670000Y-134370000D02*
X189070000Y-133770000D01*
X197870000Y-88770000D02*
X178270000Y-88770000D01*
X197870000Y-89370000D02*
X178270000Y-89370000D01*
X197870000Y-89970000D02*
X178270000Y-89970000D01*
X197870000Y-90570000D02*
X178270000Y-90570000D01*
X197870000Y-91170000D02*
X178270000Y-91170000D01*
X197870000Y-134370000D02*
X189670000Y-134370000D01*
X197870000Y-134970000D02*
X188670000Y-134970000D01*
X197870000Y-135570000D02*
X188470000Y-135570000D01*
X197870000Y-136170000D02*
X188270000Y-136170000D01*
X197870000Y-136770000D02*
X188070000Y-136770000D01*
X198170000Y-91470000D02*
X198170000Y-134070000D01*
X198770000Y-91470000D02*
X198770000Y-134070000D01*
X199370000Y-91470000D02*
X199370000Y-134070000D01*
X199970000Y-91470000D02*
X199970000Y-134070000D01*
X200570000Y-91470000D02*
X200570000Y-134070000D01*
X175570000Y-91470000D02*
G75*
G02*
X178270000Y-88770000I2700001J-1D01*
G01*
X176170000Y-91470000D02*
G75*
G02*
X178270000Y-89370000I2100001J-1D01*
G01*
X176770000Y-91470000D02*
G75*
G02*
X178270000Y-89970000I1500001J-1D01*
G01*
X177370000Y-91470000D02*
G75*
G02*
X178270000Y-90570000I900000J0D01*
G01*
X177970000Y-91470000D02*
G75*
G02*
X178270000Y-91170000I300000J0D01*
G01*
X178270000Y-134370000D02*
G75*
G02*
X177970000Y-134070000I0J300000D01*
G01*
X178270000Y-134970000D02*
G75*
G02*
X177370000Y-134070000I0J900000D01*
G01*
X178270000Y-135570000D02*
G75*
G02*
X176770000Y-134070000I0J1500000D01*
G01*
X178270000Y-136170000D02*
G75*
G02*
X176170000Y-134070000I0J2100000D01*
G01*
X178270000Y-136770000D02*
G75*
G02*
X175570000Y-134070000I0J2700000D01*
G01*
X186470000Y-136770000D02*
G75*
G02*
X187070000Y-137370000I0J-600000D01*
G01*
X197870000Y-88770000D02*
G75*
G02*
X200570000Y-91470000I-1J-2700001D01*
G01*
X197870000Y-89370000D02*
G75*
G02*
X199970000Y-91470000I-1J-2100001D01*
G01*
X197870000Y-89970000D02*
G75*
G02*
X199370000Y-91470000I-1J-1500001D01*
G01*
X197870000Y-90570000D02*
G75*
G02*
X198770000Y-91470000I0J-900000D01*
G01*
X197870000Y-91170000D02*
G75*
G02*
X198170000Y-91470000I0J-300000D01*
G01*
X198170000Y-134070000D02*
G75*
G02*
X197870000Y-134370000I-300000J0D01*
G01*
X198770000Y-134070000D02*
G75*
G02*
X197870000Y-134970000I-900000J0D01*
G01*
X199370000Y-134070000D02*
G75*
G02*
X197870000Y-135570000I-1500000J0D01*
G01*
X199970000Y-134070000D02*
G75*
G02*
X197870000Y-136170000I-2100000J0D01*
G01*
X200570000Y-134070000D02*
G75*
G02*
X197870000Y-136770000I-2700000J0D01*
G01*
%TD*%
D11*
%TO.P,C1,1*%
%TO.N,Net-(D1-K)*%
X177840000Y-140480000D03*
%TO.P,C1,2*%
%TO.N,Net-(U1-VOUT)*%
X177840000Y-141440000D03*
%TD*%
D12*
%TO.P,0805,1*%
%TO.N,unconnected-(R5-Pad1)*%
X139147500Y-141655000D03*
%TO.P,0805,2*%
%TO.N,unconnected-(R5-Pad2)*%
X140972500Y-141655000D03*
%TD*%
D13*
%TO.P,0603,1*%
%TO.N,unconnected-(R4-Pad1)*%
X139190000Y-138120000D03*
%TO.P,0603,2*%
%TO.N,unconnected-(R4-Pad2)*%
X140840000Y-138120000D03*
%TD*%
D14*
%TO.P,R1,1*%
%TO.N,Net-(D1-A)*%
X175520000Y-141400000D03*
%TO.P,R1,2*%
%TO.N,Net-(U1-VOUT)*%
X176540000Y-141400000D03*
%TD*%
D15*
%TO.P,0201,1*%
%TO.N,unconnected-(R2-Pad1)*%
X139825000Y-132620000D03*
%TO.P,0201,2*%
%TO.N,unconnected-(R2-Pad2)*%
X140465000Y-132620000D03*
%TD*%
D16*
%TO.P,1206,1*%
%TO.N,unconnected-(R6-Pad1)*%
X144002500Y-141360000D03*
%TO.P,1206,2*%
%TO.N,unconnected-(R6-Pad2)*%
X146927500Y-141360000D03*
%TD*%
D17*
%TO.P,E$1,*%
%TO.N,/ANTENNA_LA*%
X187070000Y-138270000D03*
%TO.P,E$1,P$1*%
%TO.N,/ANTENNA_LB*%
X189070000Y-138270000D03*
%TO.P,E$1,P$3*%
%TO.N,N/C*%
X189070000Y-133770000D03*
%TD*%
D18*
%TO.P,D1,1,K*%
%TO.N,Net-(D1-K)*%
X172140000Y-137310000D03*
%TO.P,D1,2,A*%
%TO.N,Net-(D1-A)*%
X170565000Y-137310000D03*
%TD*%
D14*
%TO.P,0402,1*%
%TO.N,unconnected-(R3-Pad1)*%
X139585000Y-135215000D03*
%TO.P,0402,2*%
%TO.N,unconnected-(R3-Pad2)*%
X140605000Y-135215000D03*
%TD*%
D19*
%TO.P,2512,1*%
%TO.N,unconnected-(R8-Pad1)*%
X145595000Y-134760000D03*
%TO.P,2512,2*%
%TO.N,unconnected-(R8-Pad2)*%
X151520000Y-134760000D03*
%TD*%
D20*
%TO.P,U1,1,LA*%
%TO.N,/ANTENNA_LA*%
X180050000Y-140370000D03*
D21*
%TO.P,U1,2,VSS*%
%TO.N,Net-(D1-K)*%
X179550000Y-140370000D03*
%TO.P,U1,3,SCL*%
%TO.N,unconnected-(U1-SCL-Pad3)*%
X179050000Y-140370000D03*
D22*
%TO.P,U1,4,FD*%
%TO.N,unconnected-(U1-FD-Pad4)*%
X178950000Y-140970000D03*
D21*
%TO.P,U1,5,SDA*%
%TO.N,unconnected-(U1-SDA-Pad5)*%
X179050000Y-141570000D03*
%TO.P,U1,6,VCC*%
%TO.N,unconnected-(U1-VCC-Pad6)*%
X179550000Y-141570000D03*
%TO.P,U1,7,VOUT*%
%TO.N,Net-(U1-VOUT)*%
X180050000Y-141570000D03*
D22*
%TO.P,U1,8,LB*%
%TO.N,/ANTENNA_LB*%
X180150000Y-140970000D03*
%TD*%
D23*
%TO.P,1210,1*%
%TO.N,unconnected-(R7-Pad1)*%
X150230000Y-141195000D03*
%TO.P,1210,2*%
%TO.N,unconnected-(R7-Pad2)*%
X153155000Y-141195000D03*
%TD*%
D24*
%TO.N,/ANTENNA_LA*%
X182840000Y-140160000D03*
%TD*%
D25*
%TO.N,/ANTENNA_LB*%
X189070000Y-138270000D02*
X186370000Y-140970000D01*
X186370000Y-140970000D02*
X180150000Y-140970000D01*
%TO.N,/ANTENNA_LA*%
X180260000Y-140160000D02*
X180050000Y-140370000D01*
X182840000Y-140160000D02*
X180260000Y-140160000D01*
D26*
%TO.N,Net-(D1-A)*%
X175520000Y-141400000D02*
X174655000Y-141400000D01*
X174655000Y-141400000D02*
X170565000Y-137310000D01*
%TO.N,Net-(D1-K)*%
X178454200Y-139865800D02*
X177840000Y-140480000D01*
X179464200Y-139865800D02*
X178454200Y-139865800D01*
X172140000Y-137310000D02*
X174260000Y-137310000D01*
X179550000Y-140130000D02*
X179550000Y-140370000D01*
X175570000Y-138620000D02*
X178040000Y-138620000D01*
X179550000Y-140370000D02*
X179550000Y-139951600D01*
X179550000Y-139951600D02*
X179464200Y-139865800D01*
X178040000Y-138620000D02*
X179550000Y-140130000D01*
X174260000Y-137310000D02*
X175570000Y-138620000D01*
%TO.N,Net-(U1-VOUT)*%
X176890000Y-142540000D02*
X176540000Y-142190000D01*
X179498400Y-142540000D02*
X176890000Y-142540000D01*
X178474200Y-142074200D02*
X177840000Y-141440000D01*
X180050000Y-141810000D02*
X179785800Y-142074200D01*
X179785800Y-142074200D02*
X178474200Y-142074200D01*
X176580000Y-141440000D02*
X176540000Y-141400000D01*
X180050000Y-141570000D02*
X180050000Y-141988400D01*
X176540000Y-142190000D02*
X176540000Y-141400000D01*
X180050000Y-141988400D02*
X179498400Y-142540000D01*
X180050000Y-141570000D02*
X180050000Y-141810000D01*
%TD*%
M02*
